<svg width="200" height="200" viewBox="0 0 200 200" fill="none" xmlns="http://www.w3.org/2000/svg">
<rect x="100" width="100" height="200" fill="#A80000"/>
<rect width="100" height="200" fill="black"/>
<rect x="100" y="10" width="90" height="180" fill="black"/>
<rect x="10" y="10" width="90" height="180" fill="#A80000"/>
<path d="M44.6999 111.464V137H36.3479V71.72H56.7959C62.9399 71.72 67.6759 73.352 71.0039 76.616C74.3959 79.816 76.0919 84.104 76.0919 89.48V93.608C76.0919 97.448 75.1959 100.776 73.4039 103.592C71.6759 106.408 69.1799 108.488 65.9159 109.832C68.6679 114.248 71.2279 118.728 73.5959 123.272C75.9639 127.816 78.1399 132.392 80.1239 137H70.5239C66.8759 128.296 62.6199 119.784 57.7559 111.464H44.6999ZM56.7959 79.4H44.6999V103.784H56.7959C60.0599 103.784 62.6519 102.888 64.5719 101.096C66.4919 99.24 67.4519 96.744 67.4519 93.608V89.48C67.4519 86.28 66.4919 83.816 64.5719 82.088C62.6519 80.296 60.0599 79.4 56.7959 79.4Z" fill="black"/>
<path d="M126.598 136V70.72H145.798C152.07 70.72 156.678 72.256 159.622 75.328C162.63 78.336 164.134 82.4 164.134 87.52V89.632C164.134 92.448 163.494 94.944 162.214 97.12C160.934 99.296 159.078 101.024 156.646 102.304C160.038 103.392 162.598 105.184 164.326 107.68C166.118 110.112 167.014 113.056 167.014 116.512V118.624C167.014 123.872 165.478 128.096 162.406 131.296C159.398 134.432 154.662 136 148.198 136H126.598ZM145.798 78.4H134.95V99.04H145.798C148.998 99.04 151.398 98.24 152.998 96.64C154.662 94.976 155.494 92.704 155.494 89.824V87.52C155.494 84.704 154.662 82.496 152.998 80.896C151.398 79.232 148.998 78.4 145.798 78.4ZM148.198 106.72H134.95V128.416H148.198C151.59 128.416 154.118 127.552 155.782 125.824C157.51 124.096 158.374 121.696 158.374 118.624V116.32C158.374 113.376 157.51 111.04 155.782 109.312C154.118 107.584 151.59 106.72 148.198 106.72Z" fill="#A80000"/>
</svg>
