<svg width="302" height="302" viewBox="0 0 302 302" fill="none" xmlns="http://www.w3.org/2000/svg">
<rect x="0.5" y="0.5" width="301" height="301" fill="#262626" stroke="white"/>
<path d="M22.1364 242.526V240.182H38.5V242.526H31.6392V262H28.9972V242.526H22.1364ZM44.7509 252.156V262H42.2367V240.182H44.7509V248.193H44.964C45.3475 247.348 45.9228 246.677 46.6898 246.18C47.464 245.675 48.4938 245.423 49.7793 245.423C50.8944 245.423 51.8709 245.647 52.709 246.094C53.5471 246.535 54.1969 247.213 54.6586 248.129C55.1273 249.038 55.3617 250.196 55.3617 251.602V262H52.8475V251.773C52.8475 250.473 52.5101 249.468 51.8354 248.758C51.1678 248.04 50.2409 247.682 49.0549 247.682C48.231 247.682 47.4924 247.856 46.839 248.204C46.1926 248.552 45.6813 249.06 45.3049 249.727C44.9355 250.395 44.7509 251.205 44.7509 252.156ZM66.8221 262.341C65.2454 262.341 63.8853 261.993 62.7418 261.297C61.6055 260.594 60.7283 259.614 60.1104 258.357C59.4996 257.092 59.1942 255.622 59.1942 253.946C59.1942 252.27 59.4996 250.793 60.1104 249.514C60.7283 248.229 61.5877 247.227 62.6886 246.51C63.7965 245.786 65.0891 245.423 66.5664 245.423C67.4187 245.423 68.2603 245.565 69.0913 245.849C69.9222 246.134 70.6786 246.595 71.3604 247.234C72.0423 247.866 72.5856 248.705 72.9904 249.749C73.3952 250.793 73.5977 252.078 73.5977 253.605V254.67H60.984V252.497H71.0408C71.0408 251.574 70.8562 250.75 70.4869 250.026C70.1246 249.301 69.6062 248.729 68.9315 248.31C68.2638 247.891 67.4755 247.682 66.5664 247.682C65.565 247.682 64.6985 247.93 63.967 248.428C63.2425 248.918 62.685 249.557 62.2944 250.345C61.9038 251.134 61.7085 251.979 61.7085 252.881V254.33C61.7085 255.565 61.9215 256.613 62.3477 257.472C62.7809 258.325 63.381 258.974 64.1481 259.422C64.9151 259.862 65.8065 260.082 66.8221 260.082C67.4826 260.082 68.0792 259.99 68.6119 259.805C69.1516 259.614 69.6168 259.33 70.0075 258.953C70.3981 258.57 70.6999 258.094 70.913 257.526L73.342 258.207C73.0863 259.031 72.6566 259.756 72.0529 260.381C71.4492 260.999 70.7035 261.482 69.8157 261.83C68.9279 262.17 67.93 262.341 66.8221 262.341ZM86.2006 262V240.182H88.7148V248.236H88.9279C89.1126 247.952 89.3683 247.589 89.695 247.149C90.0288 246.702 90.5046 246.304 91.1225 245.956C91.7475 245.601 92.5927 245.423 93.658 245.423C95.0359 245.423 96.2504 245.768 97.3015 246.457C98.3526 247.146 99.1729 248.122 99.7624 249.386C100.352 250.651 100.647 252.142 100.647 253.861C100.647 255.594 100.352 257.096 99.7624 258.367C99.1729 259.631 98.3562 260.612 97.3121 261.308C96.2681 261.996 95.0643 262.341 93.7006 262.341C92.6495 262.341 91.8079 262.167 91.1758 261.819C90.5437 261.464 90.0572 261.062 89.7163 260.615C89.3754 260.161 89.1126 259.784 88.9279 259.486H88.6296V262H86.2006ZM88.6722 253.818C88.6722 255.054 88.8533 256.144 89.2156 257.089C89.5778 258.026 90.1069 258.761 90.8029 259.294C91.4989 259.82 92.3512 260.082 93.3597 260.082C94.4109 260.082 95.288 259.805 95.9911 259.251C96.7013 258.69 97.234 257.937 97.5891 256.993C97.9513 256.041 98.1325 254.983 98.1325 253.818C98.1325 252.668 97.9549 251.631 97.5998 250.707C97.2518 249.777 96.7227 249.042 96.0124 248.502C95.3093 247.955 94.4251 247.682 93.3597 247.682C92.337 247.682 91.4776 247.941 90.7816 248.46C90.0856 248.971 89.56 249.688 89.2049 250.612C88.8498 251.528 88.6722 252.597 88.6722 253.818ZM111.353 262.341C109.777 262.341 108.417 261.993 107.273 261.297C106.137 260.594 105.26 259.614 104.642 258.357C104.031 257.092 103.725 255.622 103.725 253.946C103.725 252.27 104.031 250.793 104.642 249.514C105.26 248.229 106.119 247.227 107.22 246.51C108.328 245.786 109.62 245.423 111.098 245.423C111.95 245.423 112.792 245.565 113.623 245.849C114.453 246.134 115.21 246.595 115.892 247.234C116.574 247.866 117.117 248.705 117.522 249.749C117.926 250.793 118.129 252.078 118.129 253.605V254.67H105.515V252.497H115.572C115.572 251.574 115.387 250.75 115.018 250.026C114.656 249.301 114.137 248.729 113.463 248.31C112.795 247.891 112.007 247.682 111.098 247.682C110.096 247.682 109.23 247.93 108.498 248.428C107.774 248.918 107.216 249.557 106.826 250.345C106.435 251.134 106.24 251.979 106.24 252.881V254.33C106.24 255.565 106.453 256.613 106.879 257.472C107.312 258.325 107.912 258.974 108.679 259.422C109.446 259.862 110.338 260.082 111.353 260.082C112.014 260.082 112.61 259.99 113.143 259.805C113.683 259.614 114.148 259.33 114.539 258.953C114.929 258.57 115.231 258.094 115.444 257.526L117.873 258.207C117.618 259.031 117.188 259.756 116.584 260.381C115.98 260.999 115.235 261.482 114.347 261.83C113.459 262.17 112.461 262.341 111.353 262.341ZM129.07 245.636V247.767H120.59V245.636H129.07ZM123.061 241.716H125.576V257.312C125.576 258.023 125.679 258.555 125.885 258.911C126.098 259.259 126.368 259.493 126.694 259.614C127.028 259.727 127.38 259.784 127.749 259.784C128.026 259.784 128.253 259.77 128.431 259.741C128.608 259.706 128.75 259.678 128.857 259.656L129.368 261.915C129.198 261.979 128.96 262.043 128.654 262.107C128.349 262.178 127.962 262.213 127.493 262.213C126.783 262.213 126.087 262.06 125.405 261.755C124.73 261.45 124.169 260.984 123.722 260.359C123.282 259.734 123.061 258.946 123.061 257.994V241.716ZM139.968 245.636V247.767H131.488V245.636H139.968ZM133.96 241.716H136.474V257.312C136.474 258.023 136.577 258.555 136.783 258.911C136.996 259.259 137.266 259.493 137.593 259.614C137.926 259.727 138.278 259.784 138.647 259.784C138.924 259.784 139.152 259.77 139.329 259.741C139.507 259.706 139.649 259.678 139.755 259.656L140.267 261.915C140.096 261.979 139.858 262.043 139.553 262.107C139.248 262.178 138.86 262.213 138.392 262.213C137.681 262.213 136.985 262.06 136.304 261.755C135.629 261.45 135.068 260.984 134.62 260.359C134.18 259.734 133.96 258.946 133.96 257.994V241.716ZM150.435 262.341C148.859 262.341 147.499 261.993 146.355 261.297C145.219 260.594 144.342 259.614 143.724 258.357C143.113 257.092 142.808 255.622 142.808 253.946C142.808 252.27 143.113 250.793 143.724 249.514C144.342 248.229 145.201 247.227 146.302 246.51C147.41 245.786 148.702 245.423 150.18 245.423C151.032 245.423 151.874 245.565 152.705 245.849C153.536 246.134 154.292 246.595 154.974 247.234C155.656 247.866 156.199 248.705 156.604 249.749C157.009 250.793 157.211 252.078 157.211 253.605V254.67H144.597V252.497H154.654C154.654 251.574 154.469 250.75 154.1 250.026C153.738 249.301 153.219 248.729 152.545 248.31C151.877 247.891 151.089 247.682 150.18 247.682C149.178 247.682 148.312 247.93 147.58 248.428C146.856 248.918 146.298 249.557 145.908 250.345C145.517 251.134 145.322 251.979 145.322 252.881V254.33C145.322 255.565 145.535 256.613 145.961 257.472C146.394 258.325 146.994 258.974 147.761 259.422C148.528 259.862 149.42 260.082 150.435 260.082C151.096 260.082 151.692 259.99 152.225 259.805C152.765 259.614 153.23 259.33 153.621 258.953C154.011 258.57 154.313 258.094 154.526 257.526L156.955 258.207C156.7 259.031 156.27 259.756 155.666 260.381C155.063 260.999 154.317 261.482 153.429 261.83C152.541 262.17 151.543 262.341 150.435 262.341ZM161.036 262V245.636H163.464V248.108H163.635C163.933 247.298 164.473 246.641 165.254 246.137C166.036 245.633 166.916 245.381 167.896 245.381C168.081 245.381 168.312 245.384 168.589 245.391C168.866 245.398 169.075 245.409 169.217 245.423V247.98C169.132 247.959 168.937 247.927 168.631 247.884C168.333 247.835 168.017 247.81 167.683 247.81C166.888 247.81 166.178 247.977 165.553 248.31C164.935 248.637 164.445 249.092 164.082 249.674C163.727 250.249 163.55 250.906 163.55 251.645V262H161.036ZM194.016 245.636L187.965 262H185.408L179.357 245.636H182.084L186.601 258.676H186.771L191.289 245.636H194.016ZM203.609 262.341C202.032 262.341 200.672 261.993 199.529 261.297C198.393 260.594 197.515 259.614 196.898 258.357C196.287 257.092 195.981 255.622 195.981 253.946C195.981 252.27 196.287 250.793 196.898 249.514C197.515 248.229 198.375 247.227 199.476 246.51C200.584 245.786 201.876 245.423 203.354 245.423C204.206 245.423 205.047 245.565 205.878 245.849C206.709 246.134 207.466 246.595 208.148 247.234C208.829 247.866 209.373 248.705 209.778 249.749C210.182 250.793 210.385 252.078 210.385 253.605V254.67H197.771V252.497H207.828C207.828 251.574 207.643 250.75 207.274 250.026C206.912 249.301 206.393 248.729 205.719 248.31C205.051 247.891 204.263 247.682 203.354 247.682C202.352 247.682 201.486 247.93 200.754 248.428C200.03 248.918 199.472 249.557 199.081 250.345C198.691 251.134 198.496 251.979 198.496 252.881V254.33C198.496 255.565 198.709 256.613 199.135 257.472C199.568 258.325 200.168 258.974 200.935 259.422C201.702 259.862 202.594 260.082 203.609 260.082C204.27 260.082 204.866 259.99 205.399 259.805C205.939 259.614 206.404 259.33 206.795 258.953C207.185 258.57 207.487 258.094 207.7 257.526L210.129 258.207C209.873 259.031 209.444 259.756 208.84 260.381C208.236 260.999 207.491 261.482 206.603 261.83C205.715 262.17 204.717 262.341 203.609 262.341ZM214.209 262V245.636H216.638V248.108H216.809C217.107 247.298 217.647 246.641 218.428 246.137C219.209 245.633 220.09 245.381 221.07 245.381C221.255 245.381 221.486 245.384 221.763 245.391C222.04 245.398 222.249 245.409 222.391 245.423V247.98C222.306 247.959 222.111 247.927 221.805 247.884C221.507 247.835 221.191 247.81 220.857 247.81C220.062 247.81 219.351 247.977 218.726 248.31C218.108 248.637 217.618 249.092 217.256 249.674C216.901 250.249 216.724 250.906 216.724 251.645V262H214.209ZM236.962 249.301L234.704 249.94C234.562 249.564 234.352 249.198 234.075 248.843C233.805 248.481 233.436 248.183 232.967 247.948C232.499 247.714 231.898 247.597 231.167 247.597C230.165 247.597 229.331 247.827 228.663 248.289C228.003 248.744 227.673 249.322 227.673 250.026C227.673 250.651 227.9 251.144 228.354 251.506C228.809 251.869 229.519 252.17 230.485 252.412L232.914 253.009C234.377 253.364 235.467 253.907 236.185 254.638C236.902 255.363 237.261 256.297 237.261 257.44C237.261 258.378 236.991 259.216 236.451 259.955C235.918 260.693 235.173 261.276 234.214 261.702C233.255 262.128 232.14 262.341 230.869 262.341C229.2 262.341 227.818 261.979 226.724 261.254C225.631 260.53 224.938 259.472 224.647 258.08L227.033 257.483C227.261 258.364 227.69 259.024 228.322 259.464C228.962 259.905 229.796 260.125 230.826 260.125C231.998 260.125 232.928 259.876 233.617 259.379C234.313 258.875 234.661 258.271 234.661 257.568C234.661 257 234.462 256.524 234.065 256.141C233.667 255.75 233.056 255.459 232.232 255.267L229.505 254.628C228.006 254.273 226.906 253.722 226.202 252.977C225.506 252.224 225.158 251.283 225.158 250.153C225.158 249.23 225.418 248.413 225.936 247.703C226.462 246.993 227.175 246.435 228.077 246.031C228.987 245.626 230.016 245.423 231.167 245.423C232.786 245.423 234.058 245.778 234.981 246.489C235.911 247.199 236.572 248.136 236.962 249.301ZM241.045 262V245.636H243.559V262H241.045ZM242.324 242.909C241.834 242.909 241.411 242.742 241.056 242.408C240.708 242.075 240.534 241.673 240.534 241.205C240.534 240.736 240.708 240.335 241.056 240.001C241.411 239.667 241.834 239.5 242.324 239.5C242.814 239.5 243.233 239.667 243.581 240.001C243.936 240.335 244.113 240.736 244.113 241.205C244.113 241.673 243.936 242.075 243.581 242.408C243.233 242.742 242.814 242.909 242.324 242.909ZM254.812 262.341C253.335 262.341 252.039 261.989 250.924 261.286C249.816 260.583 248.949 259.599 248.324 258.335C247.706 257.071 247.397 255.594 247.397 253.903C247.397 252.199 247.706 250.711 248.324 249.44C248.949 248.168 249.816 247.181 250.924 246.478C252.039 245.775 253.335 245.423 254.812 245.423C256.289 245.423 257.582 245.775 258.69 246.478C259.805 247.181 260.672 248.168 261.289 249.44C261.914 250.711 262.227 252.199 262.227 253.903C262.227 255.594 261.914 257.071 261.289 258.335C260.672 259.599 259.805 260.583 258.69 261.286C257.582 261.989 256.289 262.341 254.812 262.341ZM254.812 260.082C255.934 260.082 256.858 259.795 257.582 259.219C258.306 258.644 258.843 257.888 259.191 256.95C259.539 256.013 259.713 254.997 259.713 253.903C259.713 252.81 259.539 251.79 259.191 250.846C258.843 249.901 258.306 249.138 257.582 248.555C256.858 247.973 255.934 247.682 254.812 247.682C253.69 247.682 252.767 247.973 252.042 248.555C251.318 249.138 250.782 249.901 250.434 250.846C250.086 251.79 249.912 252.81 249.912 253.903C249.912 254.997 250.086 256.013 250.434 256.95C250.782 257.888 251.318 258.644 252.042 259.219C252.767 259.795 253.69 260.082 254.812 260.082ZM268.579 252.156V262H266.065V245.636H268.494V248.193H268.707C269.09 247.362 269.673 246.695 270.454 246.19C271.235 245.679 272.244 245.423 273.48 245.423C274.588 245.423 275.557 245.651 276.388 246.105C277.219 246.553 277.865 247.234 278.327 248.151C278.789 249.06 279.019 250.21 279.019 251.602V262H276.505V251.773C276.505 250.487 276.171 249.486 275.504 248.768C274.836 248.044 273.92 247.682 272.755 247.682C271.953 247.682 271.235 247.856 270.603 248.204C269.978 248.552 269.485 249.06 269.122 249.727C268.76 250.395 268.579 251.205 268.579 252.156Z" fill="white"/>
<path d="M28.872 183V19.3636H48.6873V165.422H124.753V183H28.872ZM280.739 70.5H260.923C259.751 64.8004 257.701 59.7933 254.771 55.4787C251.894 51.1641 248.379 47.5419 244.224 44.6122C240.122 41.6293 235.568 39.392 230.561 37.9006C225.554 36.4091 220.334 35.6633 214.9 35.6633C204.993 35.6633 196.017 38.1669 187.974 43.174C179.984 48.1811 173.619 55.5586 168.878 65.3065C164.19 75.0543 161.847 87.0128 161.847 101.182C161.847 115.351 164.19 127.309 168.878 137.057C173.619 146.805 179.984 154.183 187.974 159.19C196.017 164.197 204.993 166.7 214.9 166.7C220.334 166.7 225.554 165.955 230.561 164.463C235.568 162.972 240.122 160.761 244.224 157.831C248.379 154.848 251.894 151.2 254.771 146.885C257.701 142.517 259.751 137.51 260.923 131.864H280.739C279.247 140.227 276.53 147.711 272.589 154.316C268.647 160.921 263.746 166.54 257.887 171.175C252.028 175.756 245.449 179.245 238.152 181.642C230.907 184.039 223.157 185.237 214.9 185.237C200.945 185.237 188.533 181.828 177.667 175.01C166.8 168.192 158.251 158.497 152.019 145.926C145.786 133.355 142.67 118.44 142.67 101.182C142.67 83.9233 145.786 69.0085 152.019 56.4375C158.251 43.8665 166.8 34.1719 177.667 27.3537C188.533 20.5355 200.945 17.1264 214.9 17.1264C223.157 17.1264 230.907 18.3249 238.152 20.7219C245.449 23.119 252.028 26.6346 257.887 31.2688C263.746 35.8498 268.647 41.4428 272.589 48.0479C276.53 54.5998 279.247 62.0838 280.739 70.5Z" fill="white"/>
</svg>
